<svg xmlns="http://www.w3.org/2000/svg" viewBox="0 0 290 241.28"><defs><style>.cls-1{fill:#b768ab;}.cls-2{fill:#333;}</style></defs><g id="レイヤー_2" data-name="レイヤー 2"><g id="吹き出し_Closepath"><path class="cls-1" d="M280,79.16a3.45,3.45,0,0,1-1.4-.29L109.47,6.51,11.09,78.44A3.53,3.53,0,0,1,6.45,78,2.82,2.82,0,0,1,7,73.76l100-73.1a3.56,3.56,0,0,1,3.47-.37l171,73.16a2.88,2.88,0,0,1,1.58,4A3.35,3.35,0,0,1,280,79.16Z"/><path class="cls-2" d="M133.31,192.55a3.54,3.54,0,0,1-1-.13l-30-8.42a3,3,0,0,1-2.18-3.75,3.38,3.38,0,0,1,4.13-2l29.3,8.22L253.8,170.6l29.78-78.34a3.41,3.41,0,0,1,4.2-1.86,3,3,0,0,1,2,3.82l-30.44,80.07a3.23,3.23,0,0,1-2.64,2l-123,16.24Z"/><path class="cls-1" d="M51.8,169.69a3.72,3.72,0,0,1-1-.13L24.7,162.24a3.19,3.19,0,0,1-2.18-2L.15,94.21a3,3,0,0,1,2.18-3.75,3.37,3.37,0,0,1,4.13,2L28.31,157l24.46,6.85A3,3,0,0,1,55,167.57,3.28,3.28,0,0,1,51.8,169.69Z"/><path class="cls-1" d="M48.09,241.28a3.94,3.94,0,0,1-.77-.08L42,240a3.24,3.24,0,0,1-2.29-1.78,2.78,2.78,0,0,1,.26-2.73l22.49-32.59L46.7,199.5a3.23,3.23,0,0,1-2.28-1.79,2.74,2.74,0,0,1,.26-2.72L69.6,158.86a3.51,3.51,0,0,1,4.55-1,2.85,2.85,0,0,1,1,4.14L52.71,194.64l15.72,3.43a3.22,3.22,0,0,1,2.28,1.78,2.76,2.76,0,0,1-.26,2.73L51,230.79,88.8,192.06,74,188.82A3.22,3.22,0,0,1,71.69,187a2.73,2.73,0,0,1,.26-2.73l15-21.68a3.5,3.5,0,0,1,4.55-.94,2.84,2.84,0,0,1,1,4.13L80,184l15.72,3.43a3.18,3.18,0,0,1,2.37,2,2.79,2.79,0,0,1-.68,2.89l-46.83,48A3.47,3.47,0,0,1,48.09,241.28Z"/></g></g></svg>