<svg xmlns="http://www.w3.org/2000/svg" viewBox="0 0 450 108"><defs><style>.cls-1{fill:#ad64a2;}.cls-2{fill:#333;}</style></defs><g id="レイヤー_2" data-name="レイヤー 2"><g id="レイヤー_1-2" data-name="レイヤー 1"><path class="cls-1" d="M363.74,108c2.29,0,4.64,0,7-.14,2.82-.12,4.91-.81,4.91-1.62s-2.1-1.49-4.92-1.61a42.47,42.47,0,0,1-14.91-5.44c-4-2.56-4.6-4.85-1.74-6.3,1.55-.78.58-1.77-2.17-2.22s-6.23-.16-7.78.62c-6.86,3.47-1.42,7.72,2.43,9.94a46,46,0,0,0,6.57,3.06c-24.08-2-40-10-40.17-10.12-1.53-.79-5-1.07-7.77-.64S301.46,95,303,95.74C304,96.27,327.15,108,363.74,108Z"/><path class="cls-1" d="M342.89,86.87h.24C403.06,86.16,450,72.74,450,56.3c0-14-33.95-26-83.05-29.56C357.47,11.42,306.33,0,246.24,0c-39.77,0-77.17,5.06-100.06,13.53-2.49.92-4.83,1.89-7,2.89-1.64.77-.79,1.77,1.9,2.24s6.22.22,7.86-.55c1.91-.89,4-1.77,6.25-2.59C176,7.84,210,3.26,246.24,3.26c55.85,0,103.14,10.76,110,25,.32.68,2.1,1.22,4.44,1.37,45.86,2.85,77.89,13.81,77.89,26.64,0,14.68-42.13,26.68-95.92,27.32-3.15,0-5.6.79-5.47,1.69S339.84,86.87,342.89,86.87Z"/><path class="cls-2" d="M197.94,107c39.67,0,77-5,99.95-13.48,1.93-.71,1.48-1.73-1-2.28a17,17,0,0,0-8,.29c-20.76,7.65-54.75,12.21-90.91,12.21-54.32,0-100.3-10-109.32-23.79-.39-.58-1.86-1.06-3.85-1.25C40.9,74.61,11.43,63.8,11.43,51.78c0-14.79,44.78-27.31,101.94-28.49,3.15-.06,5.51-.84,5.29-1.74s-2.93-1.56-6.12-1.5C49.44,21.35,0,35.29,0,51.78c0,13.14,31.22,25,78.05,29.69C89.51,96.31,139.35,107,197.94,107Z"/></g></g></svg>