<svg xmlns="http://www.w3.org/2000/svg" width="284.74" height="241.02" viewBox="0 0 284.74 241.02"><defs><style>.cls-1{fill:#b768ab;}.cls-2{fill:#333;}</style></defs><g id="レイヤー_2" data-name="レイヤー 2"><g id="レイヤー_1-2" data-name="レイヤー 1"><path class="cls-1" d="M275,79.87a3.6,3.6,0,0,1-1.38-.3L107.85,6.51,11,78a3.44,3.44,0,0,1-2.39.64A3.29,3.29,0,0,1,6.4,77.55a2.81,2.81,0,0,1-.69-2.21,3,3,0,0,1,1.2-2L105.39.65A3.34,3.34,0,0,1,107,0a3.53,3.53,0,0,1,1.76.27L276.37,74.16a3.14,3.14,0,0,1,1.51,1.41,2.75,2.75,0,0,1,.24,2A3,3,0,0,1,277,79.22,3.43,3.43,0,0,1,275,79.87Z"/><path class="cls-2" d="M130.47,192.65a3.41,3.41,0,0,1-.95-.14L100.1,184a3.47,3.47,0,0,1-1.12-.56,3.41,3.41,0,0,1-.79-.91,2.88,2.88,0,0,1-.36-1.13,2.69,2.69,0,0,1,.14-1.16,2.82,2.82,0,0,1,.6-1,3.14,3.14,0,0,1,1-.74,3.63,3.63,0,0,1,1.21-.33,3.54,3.54,0,0,1,1.26.13l28.73,8.34,118.1-15.38L278.44,93a2.83,2.83,0,0,1,.65-1,3,3,0,0,1,1-.7,3.41,3.41,0,0,1,1.22-.29,3.35,3.35,0,0,1,1.26.18,3.23,3.23,0,0,1,1.09.6,3,3,0,0,1,.75.94,2.85,2.85,0,0,1,.31,1.14,2.73,2.73,0,0,1-.19,1.16L254.33,175a3,3,0,0,1-1,1.34,3.42,3.42,0,0,1-1.61.65L130.94,192.62A3.71,3.71,0,0,1,130.47,192.65Z"/><path class="cls-1" d="M50.53,169.45a3.82,3.82,0,0,1-1-.13L24,161.89a3.34,3.34,0,0,1-1.35-.76,3,3,0,0,1-.81-1.25L.14,93.76A2.74,2.74,0,0,1,0,92.59a2.83,2.83,0,0,1,.36-1.12,3.16,3.16,0,0,1,.81-.9A3.3,3.3,0,0,1,2.3,90a3.36,3.36,0,0,1,1.26-.12,3.51,3.51,0,0,1,1.21.34,3.16,3.16,0,0,1,1,.75,3,3,0,0,1,.6,1l21.18,64.64,24,6.92a3.23,3.23,0,0,1,1.79,1.28,2.78,2.78,0,0,1,.46,2,2.94,2.94,0,0,1-1.1,1.82,3.4,3.4,0,0,1-2.12.72Z"/><path class="cls-1" d="M46.59,241a3.92,3.92,0,0,1-.76-.08l-5.25-1.22a3.46,3.46,0,0,1-1.35-.65,3,3,0,0,1-.89-1.14,2.82,2.82,0,0,1,.27-2.73l22.21-32.5-15.41-3.46a3.46,3.46,0,0,1-1.35-.65,3,3,0,0,1-.88-1.14,2.78,2.78,0,0,1-.23-1.39,2.83,2.83,0,0,1,.49-1.33l24.62-36a3.2,3.2,0,0,1,.87-.85,3.58,3.58,0,0,1,1.16-.47,3.39,3.39,0,0,1,1.27,0,3.47,3.47,0,0,1,1.18.42,3.08,3.08,0,0,1,.91.81,2.8,2.8,0,0,1,.52,1.07,2.88,2.88,0,0,1,0,1.17,3,3,0,0,1-.45,1.1L51.32,194.4l15.42,3.5a3.23,3.23,0,0,1,1.34.65A3,3,0,0,1,69,199.7a2.89,2.89,0,0,1,.22,1.39,3,3,0,0,1-.49,1.33L49.48,230.55,86.77,192l-14.55-3.3a3.2,3.2,0,0,1-1.35-.65,3,3,0,0,1-.88-1.14,2.78,2.78,0,0,1-.22-1.39,2.86,2.86,0,0,1,.48-1.34l14.81-21.61a3.25,3.25,0,0,1,2-1.33,3.53,3.53,0,0,1,2.45.39A3,3,0,0,1,91,163.48a2.82,2.82,0,0,1-.42,2.27L78.14,183.88l15.46,3.45a3.32,3.32,0,0,1,1.45.73,2.93,2.93,0,0,1,.88,1.3,2.75,2.75,0,0,1,.07,1.53,2.83,2.83,0,0,1-.75,1.36l-46.19,47.8a3.37,3.37,0,0,1-1.12.74A3.65,3.65,0,0,1,46.59,241Z"/></g></g></svg>