<svg xmlns="http://www.w3.org/2000/svg" xmlns:xlink="http://www.w3.org/1999/xlink" width="940" zoomAndPan="magnify" viewBox="0 0 705 591.000005" height="788" preserveAspectRatio="xMidYMid meet" version="1.0"><defs><clipPath id="169c66ab58"><path d="M 276 504 L 327 504 L 327 556.050781 L 276 556.050781 Z M 276 504 " clip-rule="nonzero"/></clipPath><clipPath id="2cb56f03d6"><path d="M 346 504 L 397 504 L 397 556.050781 L 346 556.050781 Z M 346 504 " clip-rule="nonzero"/></clipPath><clipPath id="be6923d057"><path d="M 213.234375 34.183594 L 467.054688 34.183594 L 467.054688 491 L 213.234375 491 Z M 213.234375 34.183594 " clip-rule="nonzero"/></clipPath></defs><path fill="#292727" d="M 303.6875 438.339844 L 311.847656 518.949219 C 311.847656 518.949219 312.636719 530.765625 321.5625 522.472656 C 330.488281 514.179688 330.636719 438.339844 330.636719 438.339844 L 303.6875 438.339844 " fill-opacity="1" fill-rule="nonzero"/><path fill="#292727" d="M 369.523438 438.339844 L 361.355469 518.949219 C 361.355469 518.949219 360.566406 530.765625 351.652344 522.472656 C 342.726562 514.179688 342.5625 438.339844 342.5625 438.339844 L 369.523438 438.339844 " fill-opacity="1" fill-rule="nonzero"/><g clip-path="url(#169c66ab58)"><path fill="#292727" d="M 309.40625 514.992188 C 304.046875 517.953125 258.175781 537.605469 284.484375 553.679688 C 305.957031 566.792969 329.871094 521.855469 326.199219 509.324219 C 322.535156 496.804688 309.40625 514.992188 309.40625 514.992188 " fill-opacity="1" fill-rule="nonzero"/></g><g clip-path="url(#2cb56f03d6)"><path fill="#292727" d="M 363.792969 514.992188 C 369.15625 517.953125 415.027344 537.605469 388.726562 553.679688 C 367.25 566.792969 343.332031 521.855469 347.003906 509.324219 C 350.675781 496.804688 363.792969 514.992188 363.792969 514.992188 " fill-opacity="1" fill-rule="nonzero"/></g><g clip-path="url(#be6923d057)"><path fill="#eaeae9" d="M 412.339844 458.195312 C 412.339844 458.195312 469.410156 489.792969 466.984375 444.832031 C 467.058594 371.941406 440.273438 126.523438 440.273438 126.523438 C 440.273438 75.53125 391.046875 34.1875 330.335938 34.1875 C 269.621094 34.1875 219.917969 98.601562 219.917969 149.601562 L 213.238281 468.988281 C 213.238281 468.988281 235.089844 495.867188 265.441406 463.066406 C 295.792969 430.257812 318.859375 479.359375 318.859375 479.359375 C 318.859375 479.359375 348 508.019531 366.207031 472.78125 C 384.425781 437.554688 412.339844 458.203125 412.339844 458.203125 " fill-opacity="1" fill-rule="nonzero"/></g><path fill="#292727" d="M 305.289062 113.449219 C 317.003906 116.363281 323.867188 129.285156 320.640625 142.304688 C 317.40625 155.332031 305.285156 163.515625 293.570312 160.613281 C 281.859375 157.695312 274.988281 144.777344 278.226562 131.75 C 281.460938 118.730469 293.578125 110.535156 305.289062 113.449219 " fill-opacity="1" fill-rule="nonzero"/><path fill="#292727" d="M 364.5625 114.308594 C 375.785156 112.347656 386.710938 121.210938 388.953125 134.097656 C 391.207031 146.988281 383.929688 159.027344 372.695312 160.980469 C 361.476562 162.941406 350.546875 154.085938 348.304688 141.195312 C 346.050781 128.308594 353.332031 116.269531 364.5625 114.308594 " fill-opacity="1" fill-rule="nonzero"/><path fill="#b2471f" d="M 301.25 329.679688 C 301.25 329.679688 300.820312 327.21875 300.933594 322.90625 C 301.058594 318.601562 301.738281 312.414062 304.265625 305.300781 C 305.5625 301.777344 307.261719 297.984375 309.871094 294.417969 C 310.480469 293.5 311.265625 292.675781 311.988281 291.808594 C 312.769531 290.972656 313.585938 290.160156 314.449219 289.378906 C 315.359375 288.640625 316.226562 287.863281 317.230469 287.199219 C 317.71875 286.855469 318.203125 286.519531 318.695312 286.183594 C 319.214844 285.878906 319.730469 285.574219 320.253906 285.269531 C 324.421875 282.855469 329.066406 281.292969 333.855469 280.40625 C 334.449219 280.308594 335.046875 280.15625 335.652344 280.089844 L 337.484375 279.882812 C 338.089844 279.808594 338.707031 279.734375 339.324219 279.734375 L 341.175781 279.636719 L 341.644531 279.613281 L 341.871094 279.589844 L 341.988281 279.582031 L 342.183594 279.589844 L 343.082031 279.625 L 344.882812 279.65625 C 345.457031 279.625 346.136719 279.742188 346.777344 279.820312 L 348.757812 280.070312 C 353.882812 280.902344 358.855469 283.351562 362.722656 286.808594 C 366.609375 290.246094 369.652344 294.34375 372.003906 298.503906 C 374.355469 302.691406 376.03125 306.980469 377.203125 311.101562 C 378.371094 315.242188 379.128906 319.199219 379.597656 322.871094 C 380.0625 326.546875 380.277344 329.90625 380.34375 332.898438 C 380.398438 335.878906 380.300781 338.46875 380.148438 340.617188 C 379.855469 344.886719 379.335938 347.304688 379.335938 347.304688 L 378.578125 347.304688 C 378.578125 347.304688 378.046875 344.949219 377.117188 340.84375 C 376.878906 339.824219 376.617188 338.695312 376.335938 337.472656 C 376.042969 336.257812 375.730469 334.9375 375.382812 333.527344 C 374.699219 330.730469 373.910156 327.585938 372.957031 324.203125 C 372.015625 320.835938 370.929688 317.234375 369.609375 313.519531 C 368.277344 309.8125 366.816406 305.972656 365.007812 302.203125 C 363.207031 298.417969 360.964844 294.746094 358.054688 291.644531 C 355.171875 288.566406 351.78125 285.78125 347.65625 284.078125 L 346.128906 283.546875 C 345.609375 283.375 345.132812 283.148438 344.511719 283.050781 L 342.746094 282.703125 L 341.859375 282.539062 L 341.804688 282.527344 C 341.71875 282.519531 341.871094 282.527344 341.839844 282.527344 L 341.71875 282.519531 L 341.511719 282.496094 L 341.078125 282.464844 C 339.941406 282.398438 338.785156 282.234375 337.644531 282.332031 C 336.5 282.386719 335.359375 282.421875 334.246094 282.667969 C 333.683594 282.765625 333.117188 282.84375 332.578125 282.972656 L 330.953125 283.460938 C 329.871094 283.742188 328.882812 284.285156 327.875 284.730469 C 327.367188 284.945312 326.921875 285.28125 326.445312 285.554688 C 325.980469 285.84375 325.503906 286.105469 325.082031 286.453125 C 324.238281 287.136719 323.371094 287.742188 322.632812 288.523438 C 319.566406 291.472656 317.371094 294.875 315.390625 298.136719 C 313.414062 301.410156 311.652344 304.617188 310.234375 307.742188 C 307.359375 313.960938 305.476562 319.542969 304.105469 323.46875 C 302.769531 327.457031 302.003906 329.742188 302.003906 329.742188 L 301.25 329.679688 " fill-opacity="1" fill-rule="nonzero"/><path fill="#b2471f" d="M 376.011719 328.097656 C 410.476562 328.097656 422.933594 351.929688 422.933594 383.515625 C 422.933594 415.113281 394.988281 440.714844 360.523438 440.714844 C 351.910156 440.714844 343.710938 439.121094 336.25 436.226562 C 328.785156 439.121094 320.574219 440.714844 311.964844 440.714844 C 277.496094 440.714844 249.550781 415.113281 249.550781 383.515625 C 249.550781 351.929688 268.484375 326.914062 302.949219 326.914062 C 302.949219 326.914062 314.722656 338.890625 336.25 338.535156 C 357.761719 338.164062 376.011719 328.097656 376.011719 328.097656 " fill-opacity="1" fill-rule="nonzero"/><path fill="#292727" d="M 284.464844 371.949219 C 284.464844 371.949219 300.09375 356.496094 305.632812 357.058594 C 311.171875 357.621094 309.691406 380.785156 309.691406 380.785156 L 284.464844 371.949219 " fill-opacity="1" fill-rule="nonzero"/><path fill="#292727" d="M 350.710938 379.679688 L 352.300781 354.671875 C 352.300781 354.671875 376.746094 364.613281 374.148438 368.625 C 371.546875 372.65625 350.710938 379.679688 350.710938 379.679688 " fill-opacity="1" fill-rule="nonzero"/><path fill="#292727" d="M 327.367188 393.476562 L 332.847656 382.269531 L 337.417969 394.117188 L 327.367188 393.476562 " fill-opacity="1" fill-rule="nonzero"/><path fill="#292727" d="M 302.226562 402.375 L 314.027344 403.136719 L 313.453125 412.121094 L 320.394531 412.566406 L 320.972656 403.578125 L 336.8125 403.570312 L 336.738281 407.710938 L 345.769531 408.285156 L 346.0625 403.644531 L 360.46875 406.136719 L 359.949219 417.128906 L 335.828125 419.078125 L 335.316406 413.105469 L 326.304688 412.933594 L 325.894531 419.402344 L 301.378906 415.6875 L 302.226562 402.375 " fill-opacity="1" fill-rule="nonzero"/><path fill="#c0935b" d="M 293.925781 286.039062 C 293.925781 286.039062 290.519531 271.929688 301.847656 269.542969 C 313.179688 267.171875 330.300781 262.269531 330.300781 262.269531 C 330.300781 262.269531 336.964844 264.601562 339.464844 274.398438 C 341.96875 284.210938 342.054688 302.050781 332.058594 297.183594 C 327.476562 307.847656 321.3125 298.320312 321.3125 298.320312 C 321.3125 298.320312 316.699219 309.941406 308.3125 300.835938 C 303.699219 312.457031 297.242188 299.027344 297.242188 299.027344 L 293.925781 286.039062 " fill-opacity="1" fill-rule="nonzero"/><path fill="#c0935b" d="M 386.746094 286.710938 C 386.746094 286.710938 390.15625 272.621094 378.828125 270.238281 C 367.488281 267.851562 350.363281 262.953125 350.363281 262.953125 C 350.363281 262.953125 343.710938 265.285156 341.210938 275.082031 C 338.707031 284.890625 338.609375 302.734375 348.617188 297.867188 C 353.191406 308.53125 359.351562 299.003906 359.351562 299.003906 C 359.351562 299.003906 363.964844 310.625 372.359375 301.519531 C 376.964844 313.136719 383.429688 299.71875 383.429688 299.71875 L 386.746094 286.710938 " fill-opacity="1" fill-rule="nonzero"/></svg>