<svg xmlns="http://www.w3.org/2000/svg" viewBox="0 0 1267.09 416.69"><defs><style>.cls-1{fill:none;stroke:#231815;stroke-miterlimit:10;}.cls-2{fill:#231815;}.cls-3{fill:#ed6c00;}</style></defs><g id="レイヤー_2" data-name="レイヤー 2"><g id="デザイン"><line class="cls-1" x1="121.61" x2="121.61" y2="239.18"/><line class="cls-1" x1="206.8" x2="206.8" y2="260.94"/><line class="cls-1" x1="314.54" x2="314.54" y2="260.94"/><line class="cls-1" x1="448.59" x2="448.59" y2="173.97"/><line class="cls-1" x1="575.59" x2="575.59" y2="260.94"/><line class="cls-1" x1="841.97" x2="841.97" y2="179.24"/><line class="cls-1" x1="903.36" x2="903.36" y2="260.94"/><line class="cls-1" x1="996.07" x2="996.07" y2="218.1"/><line class="cls-1" x1="1142.65" x2="1142.65" y2="260.94"/><path class="cls-2" d="M145.54,355.22l-41,3.59-5.26-60.17-50.74,4.44,5.26,60.17-41,3.58L0,219.66l41-3.59,5,56.94,50.74-4.45-5-56.93,41-3.58Z"/><path class="cls-3" d="M287.52,416.69,245.16,413l-7.47-35.19-41.43-3.62-12.78,33.41L142.06,404l60.35-143,51.9,4.54ZM235,352.05l-5.33-30.2c-1.56-9-3.44-22.37-5-31.52l-.46,0c-3.12,8.75-7.33,22-10.15,30.19l-10.73,28.8Z"/><path class="cls-2" d="M408.67,356.63l-100.54,8.8L295.26,218.25l41-3.58,10.39,118.8,59.58-5.22Z"/><path class="cls-3" d="M519.14,327.89l-100.54-8.8,12.87-147.18,41,3.58L462,294.3l59.58,5.21Z"/><path class="cls-2" d="M682.59,304.34c0,51.41-30.61,78-76.17,78-49.76,0-74-35.16-74-75.68,0-41.66,28-76.26,76.63-76.26C661.56,230.37,682.59,268.4,682.59,304.34Zm-107,1.72c-.24,28.28,11.45,48.54,32.24,48.54s31.54-20.26,31.54-49.12c0-25.79-10.52-47.4-31.54-47.4C585.86,258.08,575.59,280.63,575.59,306.06Z"/><path class="cls-3" d="M865.24,170.63,852.81,323.06l-43.22,7.85L788,280.06c-5.46-13-10.68-27.38-16.16-44.45l-.46.08c-.08,17.88-.16,33.05-1.28,47.82l-4,55.31-42.75,7.77-63-138.71,43-7.82,20.44,55c6.06,16.38,11.87,34,17.3,49.48l.46-.08c-.29-17.22.78-34.9,1.47-53.29l2.62-58.76,39.08-7.11,22.41,55.37c6.48,16.12,12.08,31.22,17.56,48.29l.69-.13c-.88-17.9-1.09-34.76-1-52.46l.31-58.34Z"/><path class="cls-2" d="M955.19,407.9,855,385.85l31.72-144.29,96.75,21.29-6,27.44-56.58-12.45-6.37,28.94,53.62,11.8-5.9,26.88-53.63-11.8-7.38,33.59,60,13.21Z"/><path class="cls-3" d="M1108.88,347l-101,17.89L982.15,219.45l97.54-17.27,4.89,27.66-57,10.11,5.16,29.17,54.06-9.57,4.8,27.1-54.06,9.57,6,33.87L1104,319.38Z"/><path class="cls-2" d="M1235.94,402.67,1196,394l-19.51-59.15c-5.24-15.6-11.21-36.64-14.39-53l-.91-.19c-2.49,17.05-6.33,39.28-11.89,65.08l-7.66,35.49-36.08-7.8,31.15-144.41,42.94,9.27,19,58.26a459.69,459.69,0,0,1,14.3,51.19l.46.1a557,557,0,0,1,10.23-64.08l7.41-34.38,36.09,7.8Z"/></g></g></svg>