<svg xmlns="http://www.w3.org/2000/svg" width="150.51" height="109.31" viewBox="0 0 150.51 109.31"><defs><style>.cls-1{fill:#f7d2d2;}.cls-2{fill:#ffd4d4;}.cls-3,.cls-8{fill:none;stroke-linecap:round;stroke-linejoin:round;}.cls-3{stroke:#ffa4ab;stroke-width:1.01px;}.cls-4{fill:#4f3829;}.cls-5,.cls-6{fill:#f4f4f4;}.cls-5{stroke:#e8e8e8;}.cls-5,.cls-6,.cls-7{stroke-miterlimit:10;stroke-width:0.2px;}.cls-6,.cls-7{stroke:#f4f4f4;}.cls-7{fill:#fff;}.cls-8{stroke:#fff0f0;stroke-width:4.05px;}</style></defs><g id="レイヤー_2" data-name="レイヤー 2"><g id="レイヤー_1-2" data-name="レイヤー 1"><path class="cls-1" d="M114.48,95.59a17.42,17.42,0,0,1-8.26-2.13,6.08,6.08,0,0,1-.76-10.19,17.49,17.49,0,0,0,6.75-12.19,6.08,6.08,0,0,1,9.35-4.3q.41.27.81.57c7.39,5.46,9.32,15.46,4.27,22.29A14.89,14.89,0,0,1,114.48,95.59Z"/><path class="cls-1" d="M56.34,109.31c-7,0-12.2-2.79-14.32-7.66a11,11,0,0,1-.81-2.91,6.08,6.08,0,0,1,5.92-6.9c6.38-.09,18.76-1.32,30.07-8.54a6,6,0,0,1,3.26-1,6.07,6.07,0,0,1,6,7.28C85.11,96,78.83,102.4,70,106.24A34.76,34.76,0,0,1,56.34,109.31Z"/><path class="cls-2" d="M47.22,104a6.07,6.07,0,0,1-6-5.22,12.43,12.43,0,0,1,.54-5.6C30.48,91.36,21.69,88,15,82.9,5.32,75.54.4,64.81.4,51A40.9,40.9,0,0,1,4.71,32L.42,18.74A8.74,8.74,0,0,1,8.73,7.32H9c11,.3,18.13,2.36,22.45,4.23,8.38-2.64,18.46-4.06,30-4.22C66.46,4.27,74,.7,82.31,0c.23,0,.47,0,.71,0a8.74,8.74,0,0,1,8.47,10.83C114.14,17.18,127,31.69,127,51a39.13,39.13,0,0,1-3.83,17.38,6.05,6.05,0,0,1,1,4.25A29.39,29.39,0,0,1,112.76,93a6.07,6.07,0,0,1-3.65,1.22,6,6,0,0,1-2.89-.74,16.86,16.86,0,0,1-2.15-1.36,18.34,18.34,0,0,1-3.7-3.66A77.92,77.92,0,0,1,84.47,93a6.84,6.84,0,0,1-.74.56C69.89,102.37,55,103.87,47.31,104Z"/><path class="cls-3" d="M123,59.6c4.5,1.22,25-13.5,16.77-18.4-6.75-4.05-16,23.71,10.22,7.36"/><path class="cls-3" d="M109.61,21.51c-3.68.41-6.54-5.32,11-12.68,0,0,15.95-7.36,15.95,0,0,3.27-3.25,5.72-7.15,4.91,0,0,8.38,2.45,3.06,9.81s-15.54-.41-8.59-3.27"/><circle class="cls-4" cx="24.26" cy="40.99" r="3.27"/><circle class="cls-4" cx="52.88" cy="40.99" r="3.27"/><path class="cls-5" d="M38.2,50.28c-.3,2.49-1.1,3.59-3.1,3.59a2.46,2.46,0,0,1-2.26-1.24A17.11,17.11,0,0,0,38.2,50.28Z"/><path class="cls-6" d="M44.77,48.37c-.27,3.25-1.06,5.5-3.13,5.5a2.68,2.68,0,0,1-2.58-1.15A25.2,25.2,0,0,0,44.77,48.37Z"/><path class="cls-7" d="M44.89,46c0,.85,0,1.67-.12,2.42a25.2,25.2,0,0,1-5.71,4.35,6.2,6.2,0,0,1-.62-2.61c-.07-1-.07-2.29-.07-3.8a34.19,34.19,0,0,1-.17,4,17.11,17.11,0,0,1-5.36,2.35c-.85-1.39-1-3.83-1-6.71a1.37,1.37,0,0,1,1.59-1.36,30.61,30.61,0,0,0,9.88,0A1.37,1.37,0,0,1,44.89,46Z"/><path class="cls-8" d="M105.06,27.59c4.62,3.2,7.89,6.42,11.19,13.2"/><path class="cls-8" d="M93.8,20.94s1.12-.08,4.6,2"/></g></g></svg>