<svg xmlns="http://www.w3.org/2000/svg" width="150.51" height="109.31" viewBox="0 0 150.51 109.31"><defs><style>.cls-1{fill:#f7d2d2;}.cls-2{fill:#ffd4d4;}.cls-3,.cls-8{fill:none;stroke-linecap:round;stroke-linejoin:round;}.cls-3{stroke:#ffa4ab;stroke-width:1.01px;}.cls-4{fill:#4f3829;}.cls-5,.cls-6{fill:#f4f4f4;}.cls-5{stroke:#e8e8e8;}.cls-5,.cls-6,.cls-7{stroke-miterlimit:10;stroke-width:0.2px;}.cls-6,.cls-7{stroke:#f4f4f4;}.cls-7{fill:#fff;}.cls-8{stroke:#fff0f0;stroke-width:4.05px;}</style></defs><g id="レイヤー_2" data-name="レイヤー 2"><g id="レイヤー_1-2" data-name="レイヤー 1"><path class="cls-1" d="M36,95.59a17.4,17.4,0,0,0,8.26-2.13A6.06,6.06,0,0,0,45,83.27,17.45,17.45,0,0,1,38.3,71.08,6.08,6.08,0,0,0,29,66.78c-.27.18-.55.37-.81.57-7.4,5.46-9.32,15.46-4.28,22.29A14.9,14.9,0,0,0,36,95.59Z"/><path class="cls-1" d="M94.16,109.31c7,0,12.2-2.79,14.32-7.66a11,11,0,0,0,.82-2.91,6.08,6.08,0,0,0-5.93-6.9C97,91.75,84.62,90.52,73.31,83.3a6.07,6.07,0,0,0-9.22,6.32c1.3,6.42,7.58,12.78,16.39,16.62A34.76,34.76,0,0,0,94.16,109.31Z"/><path class="cls-2" d="M103.29,104a6.07,6.07,0,0,0,6-5.22,12.58,12.58,0,0,0-.55-5.6C120,91.36,128.82,88,135.5,82.9c9.69-7.36,14.6-18.09,14.6-31.89a40.89,40.89,0,0,0-4.3-19l4.29-13.28a8.75,8.75,0,0,0-8.31-11.42h-.24c-11,.3-18.13,2.36-22.45,4.23-8.38-2.64-18.47-4.06-30-4.22C84,4.27,76.55.7,68.2,0l-.71,0A8.74,8.74,0,0,0,59,10.83C36.37,17.18,23.47,31.69,23.47,51a39.12,39.12,0,0,0,3.82,17.38,6.1,6.1,0,0,0-1,4.25A29.32,29.32,0,0,0,37.75,93a6,6,0,0,0,6.54.48,16.75,16.75,0,0,0,2.14-1.36,18.4,18.4,0,0,0,3.71-3.66A77.82,77.82,0,0,0,66,93a6.84,6.84,0,0,0,.74.56c13.84,8.84,28.77,10.34,36.43,10.45Z"/><path class="cls-3" d="M27.49,59.6C23,60.82,2.55,46.1,10.73,41.2c6.74-4.05,16,23.71-10.22,7.36"/><path class="cls-3" d="M40.89,21.51c3.68.41,6.55-5.32-11-12.68,0,0-15.94-7.36-15.94,0,0,3.27,3.25,5.72,7.14,4.91,0,0-8.37,2.45-3.05,9.81s15.53-.41,8.58-3.27"/><circle class="cls-4" cx="126.24" cy="40.99" r="3.27"/><circle class="cls-4" cx="97.62" cy="40.99" r="3.27"/><path class="cls-5" d="M112.3,50.28c.3,2.49,1.11,3.59,3.11,3.59a2.47,2.47,0,0,0,2.26-1.24A17.16,17.16,0,0,1,112.3,50.28Z"/><path class="cls-6" d="M105.73,48.37c.28,3.25,1.07,5.5,3.14,5.5a2.66,2.66,0,0,0,2.57-1.15A25.65,25.65,0,0,1,105.73,48.37Z"/><path class="cls-7" d="M105.61,46c0,.85.06,1.67.12,2.42a25.65,25.65,0,0,0,5.71,4.35,5.91,5.91,0,0,0,.62-2.61c.08-1,.08-2.29.08-3.8a34.48,34.48,0,0,0,.16,4,17.16,17.16,0,0,0,5.37,2.35c.85-1.39,1-3.83,1-6.71a1.38,1.38,0,0,0-1.59-1.36,30.67,30.67,0,0,1-9.89,0A1.37,1.37,0,0,0,105.61,46Z"/><path class="cls-8" d="M45.44,27.59c-4.61,3.2-7.88,6.42-11.18,13.2"/><path class="cls-8" d="M56.7,20.94s-1.11-.08-4.59,2"/></g></g></svg>